<svg fill="none" height="18" viewBox="0 0 66 18" width="66" xmlns="http://www.w3.org/2000/svg">
    <path
        d="M0.880488 -9.53674e-07H7.00049C8.49382 -9.53674e-07 9.82049 0.293333 10.9805 0.88C12.1405 1.45333 13.0405 2.27333 13.6805 3.34C14.3205 4.39333 14.6405 5.61333 14.6405 7C14.6405 8.38667 14.3205 9.61333 13.6805 10.68C13.0405 11.7333 12.1405 12.5533 10.9805 13.14C9.82049 13.7133 8.49382 14 7.00049 14H0.880488V-9.53674e-07ZM6.88049 11.8C7.90716 11.8 8.80716 11.6067 9.58049 11.22C10.3672 10.82 10.9672 10.26 11.3805 9.54C11.8072 8.80667 12.0205 7.96 12.0205 7C12.0205 6.04 11.8072 5.2 11.3805 4.48C10.9672 3.74667 10.3672 3.18667 9.58049 2.8C8.80716 2.4 7.90716 2.2 6.88049 2.2H3.48049V11.8H6.88049ZM27.2039 8.72C27.2039 8.89333 27.1906 9.14 27.1639 9.46H18.7839C18.9306 10.2467 19.3106 10.8733 19.9239 11.34C20.5506 11.7933 21.3239 12.02 22.2439 12.02C23.4173 12.02 24.3839 11.6333 25.1439 10.86L26.4839 12.4C26.0039 12.9733 25.3973 13.4067 24.6639 13.7C23.9306 13.9933 23.1039 14.14 22.1839 14.14C21.0106 14.14 19.9773 13.9067 19.0839 13.44C18.1906 12.9733 17.4973 12.3267 17.0039 11.5C16.5239 10.66 16.2839 9.71333 16.2839 8.66C16.2839 7.62 16.5173 6.68667 16.9839 5.86C17.4639 5.02 18.1239 4.36667 18.9639 3.9C19.8039 3.43333 20.7506 3.2 21.8039 3.2C22.8439 3.2 23.7706 3.43333 24.5839 3.9C25.4106 4.35333 26.0506 5 26.5039 5.84C26.9706 6.66667 27.2039 7.62667 27.2039 8.72ZM21.8039 5.2C21.0039 5.2 20.3239 5.44 19.7639 5.92C19.2173 6.38667 18.8839 7.01333 18.7639 7.8H24.8239C24.7173 7.02667 24.3906 6.4 23.8439 5.92C23.2973 5.44 22.6173 5.2 21.8039 5.2ZM39.6453 8.72C39.6453 8.89333 39.632 9.14 39.6053 9.46H31.2253C31.372 10.2467 31.752 10.8733 32.3653 11.34C32.992 11.7933 33.7653 12.02 34.6853 12.02C35.8587 12.02 36.8253 11.6333 37.5853 10.86L38.9253 12.4C38.4453 12.9733 37.8387 13.4067 37.1053 13.7C36.372 13.9933 35.5453 14.14 34.6253 14.14C33.452 14.14 32.4187 13.9067 31.5253 13.44C30.632 12.9733 29.9387 12.3267 29.4453 11.5C28.9653 10.66 28.7253 9.71333 28.7253 8.66C28.7253 7.62 28.9587 6.68667 29.4253 5.86C29.9053 5.02 30.5653 4.36667 31.4053 3.9C32.2453 3.43333 33.192 3.2 34.2453 3.2C35.2853 3.2 36.212 3.43333 37.0253 3.9C37.852 4.35333 38.492 5 38.9453 5.84C39.412 6.66667 39.6453 7.62667 39.6453 8.72ZM34.2453 5.2C33.4453 5.2 32.7653 5.44 32.2053 5.92C31.6587 6.38667 31.3253 7.01333 31.2053 7.8H37.2653C37.1587 7.02667 36.832 6.4 36.2853 5.92C35.7387 5.44 35.0587 5.2 34.2453 5.2ZM47.9667 3.2C49.0067 3.2 49.9334 3.42667 50.7467 3.88C51.5734 4.33333 52.2201 4.97333 52.6867 5.8C53.1534 6.62667 53.3867 7.58 53.3867 8.66C53.3867 9.74 53.1534 10.7 52.6867 11.54C52.2201 12.3667 51.5734 13.0067 50.7467 13.46C49.9334 13.9133 49.0067 14.14 47.9667 14.14C46.5267 14.14 45.3867 13.66 44.5467 12.7V17.88H42.0467V3.32H44.4267V4.72C44.8401 4.21333 45.3467 3.83333 45.9467 3.58C46.5601 3.32667 47.2334 3.2 47.9667 3.2ZM47.6867 12C48.6067 12 49.3601 11.6933 49.9467 11.08C50.5467 10.4667 50.8467 9.66 50.8467 8.66C50.8467 7.66 50.5467 6.85333 49.9467 6.24C49.3601 5.62667 48.6067 5.32 47.6867 5.32C47.0867 5.32 46.5467 5.46 46.0667 5.74C45.5867 6.00667 45.2067 6.39333 44.9267 6.9C44.6467 7.40667 44.5067 7.99333 44.5067 8.66C44.5067 9.32667 44.6467 9.91333 44.9267 10.42C45.2067 10.9267 45.5867 11.32 46.0667 11.6C46.5467 11.8667 47.0867 12 47.6867 12ZM55.9977 -9.53674e-07H58.5977V11.8H65.9177V14H55.9977V-9.53674e-07Z"
        fill="#FBFBFB" />
</svg>
